<svg fill="none" height="34" viewBox="0 0 34 34" width="34" xmlns="http://www.w3.org/2000/svg">
    <path
        d="M17 8.5C15.9493 8.5 14.9222 8.81157 14.0485 9.39532C13.1749 9.97906 12.494 10.8088 12.0919 11.7795C11.6898 12.7502 11.5846 13.8184 11.7896 14.8489C11.9946 15.8794 12.5005 16.826 13.2435 17.569C13.9865 18.312 14.9331 18.8179 15.9636 19.0229C16.9941 19.2279 18.0623 19.1227 19.033 18.7206C20.0037 18.3185 20.8334 17.6376 21.4172 16.764C22.0009 15.8903 22.3125 14.8632 22.3125 13.8125C22.3125 12.4035 21.7528 11.0523 20.7565 10.056C19.7602 9.05971 18.409 8.5 17 8.5ZM17 17C16.3696 17 15.7533 16.8131 15.2291 16.4628C14.7049 16.1126 14.2964 15.6147 14.0551 15.0323C13.8139 14.4499 13.7508 13.809 13.8737 13.1906C13.9967 12.5723 14.3003 12.0044 14.7461 11.5586C15.1919 11.1128 15.7598 10.8092 16.3782 10.6862C16.9965 10.5633 17.6374 10.6264 18.2198 10.8676C18.8022 11.1089 19.3001 11.5174 19.6503 12.0416C20.0006 12.5658 20.1875 13.1821 20.1875 13.8125C20.1865 14.6576 19.8504 15.4678 19.2529 16.0653C18.6553 16.6629 17.8451 16.999 17 17Z"
        fill="black" />
    <path
        d="M17 2.125C14.058 2.125 11.1821 2.9974 8.7359 4.63189C6.28972 6.26638 4.38315 8.58953 3.2573 11.3076C2.13145 14.0256 1.83687 17.0165 2.41083 19.902C2.98478 22.7874 4.40149 25.4379 6.48179 27.5182C8.5621 29.5985 11.2126 31.0152 14.098 31.5892C16.9835 32.1631 19.9744 31.8686 22.6924 30.7427C25.4105 29.6168 27.7336 27.7103 29.3681 25.2641C31.0026 22.8179 31.875 19.942 31.875 17C31.8706 13.0563 30.302 9.27533 27.5133 6.48669C24.7247 3.69805 20.9437 2.12944 17 2.125ZM10.625 28.025V26.5625C10.6259 25.7174 10.9621 24.9072 11.5596 24.3096C12.1572 23.712 12.9674 23.3759 13.8125 23.375H20.1875C21.0326 23.3759 21.8428 23.712 22.4404 24.3096C23.038 24.9072 23.3741 25.7174 23.375 26.5625V28.025C21.4404 29.1547 19.2403 29.75 17 29.75C14.7597 29.75 12.5596 29.1547 10.625 28.025ZM25.492 26.4837C25.4709 25.0899 24.903 23.7603 23.9108 22.7813C22.9186 21.8023 21.5814 21.2524 20.1875 21.25H13.8125C12.4186 21.2524 11.0815 21.8023 10.0892 22.7813C9.09697 23.7603 8.5291 25.0899 8.50797 26.4837C6.5812 24.7632 5.22244 22.4981 4.61161 19.9882C4.00079 17.4784 4.16671 14.8422 5.0874 12.4288C6.0081 10.0153 7.64014 7.93843 9.76743 6.47314C11.8947 5.00784 14.4169 4.22325 17 4.22325C19.5831 4.22325 22.1053 5.00784 24.2326 6.47314C26.3599 7.93843 27.9919 10.0153 28.9126 12.4288C29.8333 14.8422 29.9992 17.4784 29.3884 19.9882C28.7776 22.4981 27.4188 24.7632 25.492 26.4837Z"
        fill="black" />
</svg>
