<svg fill="none" height="34" viewBox="0 0 30 34" width="30" xmlns="http://www.w3.org/2000/svg">
    <path
        d="M29.7814 23.914L26.4825 17.8236V11.4823C26.4825 5.15093 21.3316 0 15.0002 0C8.66887 0 3.51793 5.15093 3.51793 11.4823V17.8236L0.218892 23.914C0.0692839 24.1901 -0.00601456 24.5004 0.000375317 24.8144C0.00676519 25.1285 0.0946241 25.4354 0.255343 25.7053C0.416062 25.9751 0.644128 26.1986 0.917193 26.3538C1.19026 26.509 1.49896 26.5905 1.81304 26.5905H8.38022C8.36224 26.7897 8.3525 26.9909 8.3525 27.1949C8.3525 28.9579 9.05287 30.6488 10.2995 31.8955C11.5462 33.1421 13.2371 33.8425 15.0001 33.8425C16.7632 33.8425 18.454 33.1421 19.7007 31.8955C20.9474 30.6488 21.6478 28.9579 21.6478 27.1949C21.6478 26.9909 21.638 26.7897 21.62 26.5905H28.1872C28.5013 26.5905 28.8099 26.5089 29.083 26.3537C29.356 26.1985 29.584 25.975 29.7447 25.7052C29.9054 25.4354 29.9932 25.1284 29.9996 24.8144C30.006 24.5004 29.9307 24.1902 29.7811 23.914H29.7814ZM19.2305 27.1949C19.231 27.7762 19.1116 28.3514 18.8799 28.8846C18.6482 29.4178 18.309 29.8974 17.8837 30.2937C17.4583 30.6899 16.9558 30.9943 16.4076 31.1877C15.8593 31.3811 15.2771 31.4594 14.6973 31.4178C14.1174 31.3761 13.5523 31.2154 13.0374 30.9457C12.5224 30.6759 12.0685 30.3029 11.7041 29.85C11.3397 29.397 11.0726 28.8738 10.9194 28.313C10.7662 27.7522 10.7303 27.1659 10.8138 26.5905H19.1866C19.2156 26.7907 19.2303 26.9926 19.2305 27.1949ZM2.82764 24.1732L5.93525 18.4362V11.4823C5.93525 9.0781 6.89031 6.7724 8.59032 5.07239C10.2903 3.37238 12.596 2.41732 15.0002 2.41732C17.4044 2.41732 19.7101 3.37238 21.4101 5.07239C23.1101 6.7724 24.0652 9.0781 24.0652 11.4823V18.4362L27.1726 24.1732H2.82764Z"
        fill="black" />
</svg>
