<svg fill="none" height="26" viewBox="0 0 34 26" width="34" xmlns="http://www.w3.org/2000/svg">
    <path
        d="M30.8125 0H3.1875C1.42707 0 0 1.42707 0 3.1875V22.3125C0 24.0729 1.42707 25.5 3.1875 25.5H30.8125C32.5729 25.5 34 24.0729 34 22.3125V3.1875C34 1.42707 32.5729 0 30.8125 0ZM30.8125 3.1875V5.89721C29.3235 7.10972 26.9498 8.99513 21.8751 12.9688C20.7567 13.8485 18.5414 15.9619 17 15.9372C15.4588 15.9621 13.2428 13.8482 12.1249 12.9688C7.05102 8.99572 4.67666 7.10992 3.1875 5.89721V3.1875H30.8125ZM3.1875 22.3125V9.98737C4.70913 11.1993 6.867 12.9001 10.156 15.4756C11.6075 16.6181 14.1493 19.1403 17 19.1249C19.8367 19.1403 22.3463 16.6547 23.8434 15.4761C27.1323 12.9007 29.2908 11.1995 30.8125 9.98743V22.3125H3.1875Z"
        fill="black" />
</svg>
