<svg fill="none" height="512" viewBox="0 0 512 512" width="512" xmlns="http://www.w3.org/2000/svg">
    <g clip-path="url(#clip0_2071_1422)">
        <path
            d="M512 256C512 397.385 397.385 512 256 512C114.615 512 0 397.385 0 256C0 114.615 114.615 0 256 0C397.385 0 512 114.615 512 256Z"
            fill="#FD0100" />
        <path
            d="M440 77L364.382 119.213L438.749 163.593L440 77ZM372.44 204.843L411.849 138.807L398.969 131.12L359.56 197.157L372.44 204.843Z"
            fill="white" />
        <line stroke="white" stroke-width="15" x1="371" x2="280" y1="200.5" y2="200.5" />
        <line stroke="white" stroke-width="15" x1="286.556" x2="216.556" y1="196.642"
            y2="322.642" />
        <line stroke="white" stroke-width="15" x1="220.854" x2="117.854" y1="319.499"
            y2="317.499" />
        <line stroke="white" stroke-width="15" x1="124.231" x2="55.2311" y1="314.174"
            y2="417.174" />
        <path
            d="M135.927 445H121.758L140.162 390.455H157.713L176.117 445H161.948L149.137 404.197H148.711L135.927 445ZM134.036 423.533H163.652V433.548H134.036V423.533ZM179.619 445V434.666L181.111 434.506C183.028 434.276 184.591 433.503 185.798 432.189C187.006 430.858 187.92 428.745 188.541 425.85C189.181 422.939 189.589 419.006 189.767 414.052L190.645 390.455H228.918V445H216.16V400.842H202.817L201.965 418.899C201.663 425.131 200.873 430.165 199.594 434C198.316 437.818 196.336 440.605 193.655 442.363C190.992 444.121 187.414 445 182.922 445H179.619ZM274.401 390.455V401.161H250.324V445H237.141V390.455H274.401ZM287.765 445.746V435.305H290.561C292.07 435.305 293.278 435.154 294.183 434.853C295.107 434.533 295.826 434.027 296.341 433.335C296.873 432.642 297.317 431.719 297.672 430.565L298.285 428.887L278.15 390.455H291.68L303.798 414.957L313.546 390.455H326.863L308.113 433.681C307.136 435.811 305.982 437.8 304.65 439.647C303.319 441.475 301.641 442.949 299.616 444.068C297.61 445.186 295.08 445.746 292.026 445.746H287.765ZM378.352 410.217H365.035C364.858 408.849 364.494 407.615 363.943 406.515C363.393 405.414 362.665 404.473 361.759 403.691C360.854 402.91 359.779 402.315 358.536 401.907C357.311 401.481 355.953 401.268 354.462 401.268C351.816 401.268 349.534 401.916 347.617 403.212C345.717 404.508 344.252 406.381 343.222 408.832C342.21 411.282 341.704 414.247 341.704 417.727C341.704 421.349 342.219 424.386 343.249 426.836C344.296 429.268 345.761 431.106 347.643 432.349C349.543 433.574 351.789 434.187 354.382 434.187C355.838 434.187 357.16 434 358.35 433.627C359.557 433.255 360.614 432.713 361.519 432.003C362.443 431.275 363.197 430.396 363.783 429.366C364.387 428.319 364.804 427.138 365.035 425.824L378.352 425.904C378.121 428.319 377.42 430.698 376.248 433.042C375.094 435.385 373.505 437.525 371.48 439.46C369.456 441.378 366.988 442.905 364.076 444.041C361.182 445.178 357.862 445.746 354.115 445.746C349.179 445.746 344.758 444.663 340.852 442.496C336.963 440.312 333.892 437.134 331.637 432.962C329.382 428.789 328.254 423.711 328.254 417.727C328.254 411.726 329.399 406.639 331.69 402.466C333.98 398.294 337.079 395.124 340.985 392.958C344.891 390.792 349.268 389.709 354.115 389.709C357.418 389.709 360.472 390.17 363.277 391.094C366.083 391.999 368.551 393.331 370.681 395.089C372.812 396.829 374.543 398.968 375.875 401.507C377.207 404.047 378.032 406.95 378.352 410.217Z"
            fill="white" />
    </g>
    <defs>
        <clipPath id="clip0_2071_1422">
            <rect fill="white" height="512" width="512" />
        </clipPath>
    </defs>
</svg>
