<svg fill="none" height="30" viewBox="0 0 30 30" width="30" xmlns="http://www.w3.org/2000/svg">
    <path d="M26.5273 15.0908H29.9998" stroke="black" stroke-width="2.80648" />
    <path d="M0 15.0908H19.1262" stroke="black" stroke-width="2.80648" />
    <path d="M11.6318 5.69757H29.9994" stroke="black" stroke-width="2.80648" />
    <path d="M0 5.69757H4.24341" stroke="black" stroke-width="2.80648" />
    <path d="M16.8496 24.4841H29.9992" stroke="black" stroke-width="2.80648" />
    <path d="M0 24.4841H9.44898" stroke="black" stroke-width="2.80648" />
    <path
        d="M7.93795 9.03178C9.98176 9.03178 11.6386 7.45767 11.6386 5.51589C11.6386 3.57412 9.98176 2 7.93795 2C5.89414 2 4.2373 3.57412 4.2373 5.51589C4.2373 7.45767 5.89414 9.03178 7.93795 9.03178Z"
        stroke="black" stroke-width="2.80648" />
    <path
        d="M22.8276 18.6067C24.8714 18.6067 26.5282 17.0326 26.5282 15.0908C26.5282 13.1491 24.8714 11.575 22.8276 11.575C20.7838 11.575 19.127 13.1491 19.127 15.0908C19.127 17.0326 20.7838 18.6067 22.8276 18.6067Z"
        stroke="black" stroke-width="2.80648" />
    <path
        d="M13.1499 28C15.1937 28 16.8505 26.4259 16.8505 24.4841C16.8505 22.5423 15.1937 20.9682 13.1499 20.9682C11.1061 20.9682 9.44922 22.5423 9.44922 24.4841C9.44922 26.4259 11.1061 28 13.1499 28Z"
        stroke="black" stroke-width="2.80648" />
</svg>
