<svg fill="none" height="30" viewBox="0 0 34 30" width="34" xmlns="http://www.w3.org/2000/svg">
    <path
        d="M11.027 16.5405H8.27027C7.76257 16.5405 7.35135 16.9518 7.35135 17.4595V28.4865C7.35135 28.9942 7.76257 29.4054 8.27027 29.4054H11.027C11.5347 29.4054 11.9459 28.9942 11.9459 28.4865V17.4595C11.9459 16.9518 11.5347 16.5405 11.027 16.5405ZM3.67568 22.0541H0.918919C0.411216 22.0541 0 22.4653 0 22.973V28.4865C0 28.9942 0.411216 29.4054 0.918919 29.4054H3.67568C4.18338 29.4054 4.59459 28.9942 4.59459 28.4865V22.973C4.59459 22.4653 4.18338 22.0541 3.67568 22.0541ZM18.3784 11.027H15.6216C15.1139 11.027 14.7027 11.4382 14.7027 11.9459V28.4865C14.7027 28.9942 15.1139 29.4054 15.6216 29.4054H18.3784C18.8861 29.4054 19.2973 28.9942 19.2973 28.4865V11.9459C19.2973 11.4382 18.8861 11.027 18.3784 11.027ZM25.7297 5.51351H22.973C22.4653 5.51351 22.0541 5.92473 22.0541 6.43243V28.4865C22.0541 28.9942 22.4653 29.4054 22.973 29.4054H25.7297C26.2374 29.4054 26.6486 28.9942 26.6486 28.4865V6.43243C26.6486 5.92473 26.2374 5.51351 25.7297 5.51351ZM33.0811 0H30.3243C29.8166 0 29.4054 0.411216 29.4054 0.918919V28.4865C29.4054 28.9942 29.8166 29.4054 30.3243 29.4054H33.0811C33.5888 29.4054 34 28.9942 34 28.4865V0.918919C34 0.411216 33.5888 0 33.0811 0Z"
        fill="black" />
</svg>
